<?xml version="1.0" encoding="UTF-8"?>
<!--Generator: Apple Native CoreSVG 175.5-->
<!DOCTYPE svg
PUBLIC "-//W3C//DTD SVG 1.1//EN"
       "http://www.w3.org/Graphics/SVG/1.1/DTD/svg11.dtd">
<svg version="1.1" xmlns="http://www.w3.org/2000/svg" xmlns:xlink="http://www.w3.org/1999/xlink" width="24.9023" height="24.9146">
 <g>
  <rect height="24.9146" opacity="0" width="24.9023" x="0" y="0"/>
  <path d="M12.4512 24.9023C19.2627 24.9023 24.9023 19.2505 24.9023 12.4512C24.9023 5.63965 19.2505 0 12.439 0C5.63965 0 0 5.63965 0 12.4512C0 19.2505 5.65186 24.9023 12.4512 24.9023ZM12.4512 22.8271C6.68945 22.8271 2.0874 18.2129 2.0874 12.4512C2.0874 6.68945 6.67725 2.0752 12.439 2.0752C18.2007 2.0752 22.8271 6.68945 22.8271 12.4512C22.8271 18.2129 18.2129 22.8271 12.4512 22.8271ZM6.78711 12.4512C6.78711 13.0493 7.20215 13.4521 7.82471 13.4521L11.4136 13.4521L11.4136 17.0532C11.4136 17.6636 11.8286 18.0908 12.4268 18.0908C13.0371 18.0908 13.4644 17.6758 13.4644 17.0532L13.4644 13.4521L17.0654 13.4521C17.6758 13.4521 18.103 13.0493 18.103 12.4512C18.103 11.8408 17.6758 11.4136 17.0654 11.4136L13.4644 11.4136L13.4644 7.82471C13.4644 7.20215 13.0371 6.7749 12.4268 6.7749C11.8286 6.7749 11.4136 7.20215 11.4136 7.82471L11.4136 11.4136L7.82471 11.4136C7.20215 11.4136 6.78711 11.8408 6.78711 12.4512Z" fill="#ffffff" fill-opacity="0.85"/>
 </g>
</svg>
