<?xml version="1.0" encoding="UTF-8"?>
<!--Generator: Apple Native CoreSVG 175.5-->
<!DOCTYPE svg
PUBLIC "-//W3C//DTD SVG 1.1//EN"
       "http://www.w3.org/Graphics/SVG/1.1/DTD/svg11.dtd">
<svg version="1.1" xmlns="http://www.w3.org/2000/svg" xmlns:xlink="http://www.w3.org/1999/xlink" width="34.8633" height="34.8804">
 <g>
  <rect height="34.8804" opacity="0" width="34.8633" x="0" y="0"/>
  <path d="M17.4316 34.8633C26.9678 34.8633 34.8633 26.9507 34.8633 17.4316C34.8633 7.89551 26.9507 0 17.4146 0C7.89551 0 0 7.89551 0 17.4316C0 26.9507 7.9126 34.8633 17.4316 34.8633ZM15.5347 22.7466C11.5015 22.7466 8.20312 19.4312 8.20312 15.415C8.20312 11.3818 11.5015 8.06641 15.5347 8.06641C19.5679 8.06641 22.8662 11.3647 22.8662 15.415C22.8662 16.9189 22.3877 18.3374 21.6016 19.4824L26.1304 24.0454C26.4209 24.353 26.6089 24.729 26.6089 25.1221C26.6089 26.0107 26.0278 26.6431 25.1733 26.6431C24.6606 26.6431 24.2847 26.4722 23.9258 26.0962L19.4141 21.6016C18.2861 22.3022 16.9531 22.7466 15.5347 22.7466ZM15.5347 20.3369C18.2178 20.3369 20.4395 18.0981 20.4395 15.415C20.4395 12.6978 18.2178 10.4761 15.5347 10.4761C12.8345 10.4761 10.6128 12.7148 10.6128 15.415C10.6128 18.0981 12.8345 20.3369 15.5347 20.3369Z" fill="#000000" fill-opacity="0.85"/>
 </g>
</svg>
