<?xml version="1.0" encoding="UTF-8"?>
<!--Generator: Apple Native CoreSVG 175.5-->
<!DOCTYPE svg
PUBLIC "-//W3C//DTD SVG 1.1//EN"
       "http://www.w3.org/Graphics/SVG/1.1/DTD/svg11.dtd">
<svg version="1.1" xmlns="http://www.w3.org/2000/svg" xmlns:xlink="http://www.w3.org/1999/xlink" width="34.8633" height="34.8804">
 <g>
  <rect height="34.8804" opacity="0" width="34.8633" x="0" y="0"/>
  <path d="M17.4316 34.8633C26.9678 34.8633 34.8633 26.9507 34.8633 17.4316C34.8633 7.89551 26.9507 0 17.4146 0C7.89551 0 0 7.89551 0 17.4316C0 26.9507 7.9126 34.8633 17.4316 34.8633ZM17.4487 26.25C16.6797 26.25 16.1157 25.7031 16.1157 24.917L16.1157 16.1499L16.2695 12.4072L14.5093 14.5264L12.4243 16.6284C12.1851 16.8677 11.8433 17.0215 11.4844 17.0215C10.7495 17.0215 10.2026 16.4575 10.2026 15.7397C10.2026 15.3638 10.3052 15.0562 10.5444 14.8169L16.4233 8.95508C16.7822 8.59619 17.0728 8.45947 17.4487 8.45947C17.8418 8.45947 18.1494 8.61328 18.4912 8.95508L24.353 14.8169C24.5923 15.0562 24.729 15.3638 24.729 15.7397C24.729 16.4575 24.165 17.0215 23.4302 17.0215C23.0542 17.0215 22.7295 16.8848 22.4902 16.6284L20.4224 14.5264L18.6279 12.3901L18.7817 16.1499L18.7817 24.917C18.7817 25.7031 18.2349 26.25 17.4487 26.25Z" fill="#000000" fill-opacity="0.85"/>
 </g>
</svg>
