<?xml version="1.0" encoding="UTF-8"?>
<svg xmlns="http://www.w3.org/2000/svg" xmlns:xlink="http://www.w3.org/1999/xlink" width="30px" height="40px" viewBox="0 0 30 39" version="1.1">
<g id="surface1">
<path style=" stroke:none;fill-rule:nonzero;fill:rgb(0%,0%,0%);fill-opacity:0.85098;" d="M 5.410156 39.390625 L 25.332031 39.390625 C 28.417969 39.390625 30.226562 37.628906 30.226562 34.140625 L 30.226562 14.945312 C 30.226562 11.460938 28.402344 9.699219 24.816406 9.699219 L 5.410156 9.699219 C 1.808594 9.699219 0 11.441406 0 14.945312 L 0 34.140625 C 0 37.628906 1.808594 39.390625 5.410156 39.390625 Z M 3.757812 6.972656 L 26.453125 6.972656 C 26.195312 5.433594 25.453125 4.585938 23.730469 4.585938 L 6.480469 4.585938 C 4.757812 4.585938 4.015625 5.433594 3.757812 6.972656 Z M 6.753906 2.285156 L 23.472656 2.285156 C 23.367188 0.847656 22.523438 0.101562 20.9375 0.101562 L 9.273438 0.101562 C 7.6875 0.101562 6.859375 0.847656 6.753906 2.285156 Z M 13.113281 36.699219 C 12.839844 36.628906 12.390625 36.171875 12.390625 35.394531 C 12.390625 32.484375 15.425781 28.980469 20.285156 28.980469 C 23.421875 28.980469 26.160156 30.535156 27.453125 32.71875 L 27.453125 34.023438 C 27.453125 35.785156 26.296875 36.699219 24.78125 36.699219 Z M 20.285156 27.101562 C 18.234375 27.101562 16.457031 25.289062 16.457031 22.988281 C 16.441406 20.683594 18.25 18.925781 20.300781 18.925781 C 22.351562 18.925781 24.09375 20.632812 24.09375 22.953125 C 24.09375 25.289062 22.335938 27.101562 20.285156 27.101562 Z M 5.464844 36.699219 C 3.738281 36.699219 2.792969 35.785156 2.792969 34.023438 L 2.792969 32.363281 C 3.824219 30.554688 6.167969 28.945312 9.273438 28.945312 C 10.789062 28.945312 11.960938 29.285156 13.0625 29.976562 C 11.375 31.195312 10.183594 33.601562 10.183594 35.394531 C 10.183594 35.902344 10.269531 36.34375 10.460938 36.699219 Z M 9.273438 27.335938 C 7.480469 27.335938 5.945312 25.761719 5.929688 23.714844 C 5.929688 21.71875 7.480469 20.195312 9.273438 20.195312 C 11.046875 20.195312 12.597656 21.683594 12.597656 23.699219 C 12.597656 25.761719 11.0625 27.335938 9.273438 27.335938 Z M 9.273438 27.335938 "/>
</g>
</svg>
