<?xml version="1.0" encoding="UTF-8"?>
<!--Generator: Apple Native CoreSVG 175.5-->
<!DOCTYPE svg
PUBLIC "-//W3C//DTD SVG 1.1//EN"
       "http://www.w3.org/Graphics/SVG/1.1/DTD/svg11.dtd">
<svg version="1.1" xmlns="http://www.w3.org/2000/svg" xmlns:xlink="http://www.w3.org/1999/xlink" width="36.9244" height="41.2378">
 <g>
  <rect height="41.2378" opacity="0" width="36.9244" x="0" y="0"/>
  <path d="M18.4593 41.2378C23.4666 41.2378 26.7137 33.0859 26.7137 20.6104C26.7137 8.18604 23.4666 0.0341797 18.4593 0.0341797C13.452 0.0341797 10.2049 8.18604 10.2049 20.6104C10.2049 33.0859 13.452 41.2378 18.4593 41.2378ZM18.4593 38.7256C15.1268 38.7256 12.9222 31.582 12.9222 20.6104C12.9222 9.65576 15.1268 2.54639 18.4593 2.54639C21.8089 2.54639 24.0135 9.65576 24.0135 20.6104C24.0135 31.582 21.8089 38.7256 18.4593 38.7256ZM0.600406 31.1035C3.11261 35.4272 11.7772 34.1797 22.595 27.9419C33.3958 21.7212 38.8304 14.8511 36.3182 10.5103C33.806 6.18652 25.1414 7.43408 14.3577 13.6548C3.53986 19.9438-1.86053 26.7798 0.600406 31.1035ZM2.805 29.8389C1.13019 26.9678 6.18879 21.5161 15.7249 16.0132C25.1756 10.5444 32.4559 8.88672 34.1136 11.792C35.8055 14.646 30.7298 20.1147 21.262 25.5664C11.743 31.0693 4.4798 32.7271 2.805 29.8389ZM36.3182 31.1035C38.7962 26.7798 33.3787 19.9438 22.5609 13.6548C11.7772 7.43408 3.1297 6.18652 0.600406 10.5103C-1.89471 14.8511 3.52277 21.7212 14.3236 27.9419C25.1585 34.1797 33.8231 35.4272 36.3182 31.1035ZM34.1136 29.8389C32.4559 32.7271 25.1927 31.0693 15.6736 25.5664C6.18879 20.1147 1.1131 14.646 2.805 11.792C4.46271 8.88672 11.7601 10.5444 21.2108 16.0132C30.7298 21.5161 35.7884 26.9678 34.1136 29.8389ZM18.4764 24.2676C20.4759 24.2676 22.0994 22.644 22.0994 20.6274C22.0994 18.6279 20.4759 17.0044 18.4764 17.0044C16.4598 17.0044 14.8362 18.6279 14.8362 20.6274C14.8362 22.644 16.4598 24.2676 18.4764 24.2676Z" fill="#000000" fill-opacity="0.85"/>
 </g>
</svg>
