<?xml version="1.0" encoding="UTF-8"?>
<!--Generator: Apple Native CoreSVG 175.5-->
<!DOCTYPE svg
PUBLIC "-//W3C//DTD SVG 1.1//EN"
       "http://www.w3.org/Graphics/SVG/1.1/DTD/svg11.dtd">
<svg version="1.1" xmlns="http://www.w3.org/2000/svg" xmlns:xlink="http://www.w3.org/1999/xlink" width="24.9023" height="24.9146">
 <g>
  <rect height="24.9146" opacity="0" width="24.9023" x="0" y="0"/>
  <path d="M12.4512 24.9023C19.2627 24.9023 24.9023 19.2505 24.9023 12.4512C24.9023 5.63965 19.2505 0 12.439 0C5.63965 0 0 5.63965 0 12.4512C0 19.2505 5.65186 24.9023 12.4512 24.9023ZM12.4512 22.8271C6.68945 22.8271 2.0874 18.2129 2.0874 12.4512C2.0874 6.68945 6.67725 2.0752 12.439 2.0752C18.2007 2.0752 22.8271 6.68945 22.8271 12.4512C22.8271 18.2129 18.2129 22.8271 12.4512 22.8271ZM11.1084 18.2495C11.5112 18.2495 11.853 18.0542 12.0972 17.6758L17.6758 8.89893C17.8101 8.65479 17.9688 8.38623 17.9688 8.11768C17.9688 7.56836 17.4805 7.21436 16.9678 7.21436C16.6626 7.21436 16.3574 7.40967 16.1255 7.76367L11.0596 15.8936L8.65479 12.7808C8.36182 12.3901 8.09326 12.2925 7.75146 12.2925C7.22656 12.2925 6.81152 12.7197 6.81152 13.2568C6.81152 13.5254 6.92139 13.7817 7.09229 14.0137L10.0708 17.6758C10.376 18.0786 10.7056 18.2495 11.1084 18.2495Z" fill="#ffffff" fill-opacity="0.85"/>
 </g>
</svg>
