<?xml version="1.0" encoding="UTF-8"?>
<!--Generator: Apple Native CoreSVG 175.5-->
<!DOCTYPE svg
PUBLIC "-//W3C//DTD SVG 1.1//EN"
       "http://www.w3.org/Graphics/SVG/1.1/DTD/svg11.dtd">
<svg version="1.1" xmlns="http://www.w3.org/2000/svg" xmlns:xlink="http://www.w3.org/1999/xlink" width="11.686" height="11.6987">
 <g>
  <rect height="11.6987" opacity="0" width="11.686" x="0" y="0"/>
  <path d="M1.99316 11.6987L9.69287 11.6987C11.0259 11.6987 11.686 11.0386 11.686 9.73096L11.686 1.98047C11.686 0.672852 11.0259 0.0126953 9.69287 0.0126953L1.99316 0.0126953C0.666504 0.0126953 0 0.666504 0 1.98047L0 9.73096C0 11.0449 0.666504 11.6987 1.99316 11.6987ZM5.85254 2.51367C6.14453 2.51367 6.34766 2.7168 6.34766 3.00879L6.34766 6.26514L6.29053 7.66162L6.95703 6.86816L7.7251 6.0874C7.81396 5.98584 7.93457 5.94141 8.07422 5.94141C8.34717 5.94141 8.55664 6.14453 8.55664 6.41748C8.55664 6.55713 8.51221 6.67139 8.41699 6.76025L6.23975 8.93115C6.11279 9.05811 6.00488 9.12158 5.85254 9.12158C5.71289 9.12158 5.60498 9.06445 5.47168 8.93115L3.28809 6.76025C3.19922 6.67139 3.16113 6.55713 3.16113 6.41748C3.16113 6.14453 3.36426 5.94141 3.63721 5.94141C3.77686 5.94141 3.89746 5.99219 3.98633 6.0874L4.76074 6.86816L5.41455 7.65527L5.35742 6.26514L5.35742 3.00879C5.35742 2.7168 5.56689 2.51367 5.85254 2.51367Z" fill="#000000" fill-opacity="0.85"/>
 </g>
</svg>
