<?xml version="1.0" encoding="UTF-8"?>
<!--Generator: Apple Native CoreSVG 175.5-->
<!DOCTYPE svg
PUBLIC "-//W3C//DTD SVG 1.1//EN"
       "http://www.w3.org/Graphics/SVG/1.1/DTD/svg11.dtd">
<svg version="1.1" xmlns="http://www.w3.org/2000/svg" xmlns:xlink="http://www.w3.org/1999/xlink" width="13.4839" height="13.4985">
 <g>
  <rect height="13.4985" opacity="0" width="13.4839" x="0" y="0"/>
  <path d="M2.2998 13.4985L11.1841 13.4985C12.7222 13.4985 13.4839 12.7368 13.4839 11.228L13.4839 2.28516C13.4839 0.776367 12.7222 0.0146484 11.1841 0.0146484L2.2998 0.0146484C0.769043 0.0146484 0 0.769043 0 2.28516L0 11.228C0 12.7441 0.769043 13.4985 2.2998 13.4985ZM2.31445 12.3193C1.58203 12.3193 1.1792 11.9312 1.1792 11.1694L1.1792 2.34375C1.1792 1.58203 1.58203 1.19385 2.31445 1.19385L11.1694 1.19385C11.8945 1.19385 12.3047 1.58203 12.3047 2.34375L12.3047 11.1694C12.3047 11.9312 11.8945 12.3193 11.1694 12.3193ZM9.03809 4.9292C8.71582 4.9292 8.50342 5.14893 8.50342 5.50049L8.50342 6.76758L8.61328 7.91016L7.55859 6.78223L4.86328 4.08691C4.76074 3.98438 4.62158 3.91846 4.4458 3.91846C4.12354 3.91846 3.91113 4.13086 3.91113 4.46045C3.91113 4.60693 3.97705 4.75342 4.07959 4.85596L6.78223 7.55127L7.9248 8.62061L6.84082 8.50342L5.50781 8.50342C5.15625 8.50342 4.9292 8.71582 4.9292 9.03809C4.9292 9.36035 5.14893 9.57275 5.49316 9.57275L8.96484 9.57275C9.33838 9.57275 9.58008 9.4043 9.58008 8.97217L9.58008 5.51514C9.58008 5.1709 9.36035 4.9292 9.03809 4.9292Z" fill="#000000" fill-opacity="0.85"/>
 </g>
</svg>
